Coordinates
version=1
nRows=13
nColumns=22
inDegrees=yes

Units are S.I. units (second, meters, Newtons, ...)
If the header above contains a line with 'inDegrees', this indicates whether rotational values are in degrees (yes) or radians (no).

endheader
time	pelvis_tilt	pelvis_list	pelvis_rotation	pelvis_tx	pelvis_ty	pelvis_tz	hip_flexion_r	hip_adduction_r	hip_rotation_r	knee_angle_r	ankle_angle_r	subtalar_angle_r	hip_flexion_l	hip_adduction_l	hip_rotation_l	knee_angle_l	ankle_angle_l	subtalar_angle_l	lumbar_extension	lumbar_bending	lumbar_rotation
      3.63000000	     -7.15283097	      5.34571794	    163.12365809	      0.45437840	      0.92094429	     -0.63962197	    -13.93833652	     -2.72867187	     -8.65714083	    -43.54435821	    -12.75142130	     13.06037877	     13.92233868	      3.92077834	    -20.19612392	    -26.17844797	     15.70471511	    -25.70988903	    -12.60542232	     -0.36056905	     -3.91196022
      3.64000000	     -7.14797885	      5.11280922	    163.63609848	      0.44375635	      0.92214426	     -0.64089512	    -12.19350922	     -3.26057640	     -8.23428492	    -46.14751267	    -13.61617365	     13.58933389	     13.08216919	      4.35977538	    -20.00798832	    -25.82106363	     16.15430614	    -25.28349765	    -12.53872043	     -0.47385848	     -4.17532073
      3.65000000	     -7.20629649	      4.84445083	    164.18296022	      0.43335469	      0.92325420	     -0.64194700	    -10.43144562	     -3.88058830	     -7.92732135	    -48.65020998	    -13.87619452	     13.82338200	     12.16839535	      4.85516108	    -19.85279557	    -25.40419727	     16.58747142	    -24.92745899	    -12.58592372	     -0.62885586	     -4.52108939
      3.66000000	     -7.24640062	      4.55961204	    164.77491393	      0.42315321	      0.92421451	     -0.64278017	     -8.59790744	     -4.50412625	     -7.64387147	    -50.98973909	    -13.54627729	     13.98455806	     11.25894627	      5.38277973	    -19.59313196	    -24.91848567	     16.98042220	    -24.50285394	    -12.64956789	     -0.77493786	     -4.94872850
      3.67000000	     -7.33613578	      4.26056578	    165.43849000	      0.41311988	      0.92512209	     -0.64336542	     -6.79124478	     -5.16954234	     -7.45854963	    -53.12186571	    -12.86837760	     13.95585329	     10.30704677	      5.94666103	    -19.24222197	    -24.42995291	     17.37826880	    -24.11885093	    -12.80523885	     -0.92892309	     -5.41521042
      3.68000000	     -7.41420674	      3.95759579	    166.17559273	      0.40317580	      0.92599948	     -0.64373457	     -4.98453838	     -5.80766235	     -7.28729419	    -54.98437119	    -11.90941954	     13.67837287	      9.33812061	      6.52919314	    -18.75188349	    -23.87403296	     17.69324706	    -23.74008634	    -12.95973992	     -1.05759095	     -5.98818239
      3.69000000	     -7.50413649	      3.68028070	    167.00284310	      0.39333058	      0.92689353	     -0.64388984	     -3.22676523	     -6.39482322	     -7.15857895	    -56.55997959	    -10.75241694	     13.18428996	      8.34606393	      7.09218538	    -18.09957397	    -23.31723201	     18.00903647	    -23.40794663	    -13.14742335	     -1.13946172	     -6.59818961
      3.70000000	     -7.59956269	      3.44894122	    167.91939797	      0.38358325	      0.92782122	     -0.64385841	     -1.53029651	     -6.89665468	     -7.05849033	    -57.83103118	     -9.43257194	     12.39214706	      7.34278563	      7.59728165	    -17.30413649	    -22.78996490	     18.37910569	    -23.12403574	    -13.35933270	     -1.15201331	     -7.22921428
      3.71000000	     -7.67283652	      3.27289118	    168.92307111	      0.37390484	      0.92880053	     -0.64365603	      0.11467452	     -7.27301777	     -6.94707856	    -58.77402799	     -7.97837553	     11.76253509	      6.33600931	      8.02738719	    -16.36197555	    -22.25212971	     18.69521748	    -22.87430234	    -13.55048367	     -1.07750820	     -7.90275317
      3.72000000	     -7.72247699	      3.15415987	    169.99514445	      0.36430214	      0.92981592	     -0.64331971	      1.70832612	     -7.52908449	     -6.83106652	    -59.39117980	     -6.46549060	     11.08200699	      5.33485752	      8.36813365	    -15.31119268	    -21.71768815	     18.99541224	    -22.62506482	    -13.71140089	     -0.91952826	     -8.57821186
      3.73000000	     -7.74947051	      3.09114118	    171.11568613	      0.35477827	      0.93085425	     -0.64288453	      3.24821047	     -7.66786048	     -6.70031883	    -59.68554453	     -4.93957822	     10.34592644	      4.34042073	      8.61367643	    -14.19281647	    -21.18209998	     19.27577673	    -22.36782495	    -13.83692753	     -0.68710715	     -9.23576827
      3.74000000	     -7.75245190	      3.06500221	    172.27016563	      0.34535449	      0.93188542	     -0.64236723	      4.74375959	     -7.71341539	     -6.54728190	    -59.67396256	     -3.48193910	      9.65978640	      3.36247487	      8.78429906	    -13.01126840	    -20.64089552	     19.49842068	    -22.09421427	    -13.92285986	     -0.40653910	     -9.86203061
      3.75000000	     -7.74661851	      3.07885986	    173.40807753	      0.33597446	      0.93290583	     -0.64186854	      6.17356137	     -7.66874292	     -6.34587172	    -59.35914956	     -2.06925913	      8.78407300	      2.37667237	      8.86534648	    -11.89795354	    -20.08023230	     19.78404880	    -21.81395086	    -13.97276662	     -0.09022520	    -10.40841234
